# xmcd
#
# Track frame offsets:
#	150
#	19267
#	36143
#	60511
#	92121
#	108933
#	125328
#	140809
#	155828
#	170325
#	190690
#	209164
#	237023
#	254016
#
# Disc length: 3558 seconds
#
# Revision: 1
# Processed by: cddbd v1.5.2PL0 Copyright (c) Steve Scherf et al.
# Submitted via: audiograbber 1.83.01
#
DISCID=c90de40e
DTITLE=GILBERO GIL - CANTA LUIZ GONZAGA
DYEAR=1900
DGENRE=FORRÓ
TTITLE0=VEM MORENA
TTITLE1=MACAPÁ
TTITLE2=IMBALANÇA
TTITLE3=RESPEIRA JANUÁRIO
TTITLE4=JUAZEIRO
TTITLE5=ASA BRANCA
TTITLE6=QUI NEM JILÓ
TTITLE7=ASSUM PRETO
TTITLE8=PAU DE ARARA
TTITLE9=A VOLTA DA ASA BRANCA
TTITLE10=OLHA PRO CÉU
TTITLE11=BAIÃO-DE ONDE VEM O BAIÃO
TTITLE12=O XOTE DAS MENINAS
TTITLE13=TREZE DE DEZEMBRO
EXTD=
EXTT0=
EXTT1=
EXTT2=
EXTT3=
EXTT4=
EXTT5=
EXTT6=
EXTT7=
EXTT8=
EXTT9=
EXTT10=
EXTT11=
EXTT12=
EXTT13=
PLAYORDER=
